<?xml version="1.0" encoding="UTF-8"?>
<svg xmlns="http://www.w3.org/2000/svg" viewBox="0 0 351.24 172.67">
  <defs>
    <style>
      .cls-1 {
        fill: #000;
      }

      .cls-1, .cls-2 {
        stroke-width: 0px;
      }

      .cls-2 {
        fill: #fff;
      }
    </style>
  </defs>
  <g id="face1">
    <g id="face1-2" data-name="face1">
      <path class="cls-1" d="M21.49,134.6c-.06.39-.13,1.36-.38,2.28-1.52,5.67-4.65,10.33-9.21,14-1.9,1.53-4.02,2.62-6.6,2.55-2.09-.05-3.65-.99-4.15-2.94-.42-1.62-.64-3.47-.3-5.09,1.57-7.48,5.76-13.16,12.5-16.81,4.46-2.42,8.24.16,8.13,6ZM3.07,145.41c-.44,3.48-.21,4.86,1.09,5.5,2.04,1,3.79-.06,5.37-1.13,4.82-3.27,7.92-7.83,9.44-13.41.34-1.26.36-2.68.19-3.99-.25-1.93-1.31-2.62-3.25-2.36-2.01.27-3.76,1.05-5.06,2.78,2.67,1.14,3.75,2.87,3.33,5.15-.91,4.88-6.1,8.43-11.1,7.47Z"/>
      <path class="cls-1" d="M20.6,148.38c.7-7.73,3.5-13.53,9.36-17.66,3.69-2.61,8.19-1.33,9.67,2.96.59,1.69.88,3.61.77,5.39-.33,5.15-2.15,9.83-5.64,13.67-1.39,1.53-3.16,2.92-5.03,3.78-3.67,1.67-7.04.08-8.32-3.74-.54-1.62-.64-3.39-.81-4.39ZM27.68,135.64c2.49,3.33,2.76,6.86,1.39,10.52-.5,1.33-1.24,2.59-2.02,3.79-.93,1.43-2.52.71-3.88.71,1.19,4.38,3.55,5.38,7.07,3.14.73-.46,1.41-1.03,2.01-1.64,3.75-3.81,5.69-8.45,5.91-13.76.06-1.4-.25-2.9-.73-4.23-.78-2.13-2.43-2.86-4.65-2.35-2.17.5-3.86,1.66-5.09,3.81Z"/>
      <path class="cls-1" d="M.32,165.53c.74.32,1.49.6,2.2.97,4.27,2.18,8.65,3.7,13.6,3.01,1.46-.2,3.1.12,4.5.62,1.31.47,2.22.2,3.18-.55,1.29-1.01,2.56-2.04,3.86-3.04.53-.41,1.06-.87,1.67-1.09.34-.13.92.08,1.24.34.17.14.14.88-.05,1.03-2.5,1.94-4.98,3.91-7.61,5.66-.56.38-1.75.18-2.49-.14-1.95-.85-3.88-.86-5.94-.64-5.2.55-9.59-1.58-13.7-4.44-.38-.26-.53-.85-.79-1.29.11-.14.21-.28.32-.42Z"/>
      <path class="cls-1" d="M51.71,133.26c-.24-1.19-.46-2.19-.65-3.2-.96-5.16-3.61-6.13-7.58-2.74-.7.6-1.25,1.38-1.98,2.21-1-.39-1.06-1.17-.5-1.97,1.42-2.02,3.26-3.58,5.68-4.25.7-.2,1.57-.15,2.27.07,3.12.94,5.32,6.52,3.79,9.46-.06.12-.32.14-1.04.43Z"/>
      <path class="cls-1" d="M20.92,127.65c-4.51-3.89-9.38-3.65-14.35-3.16.12-1.38,1.03-1.66,1.8-1.79,3.46-.57,6.92-.57,10.21.82.93.39,1.75,1.15,2.44,1.91.26.29-.02,1.06-.1,2.22Z"/>
      <path class="cls-2" d="M3.07,145.41c5,.96,10.19-2.59,11.1-7.47.42-2.28-.65-4.01-3.33-5.15,1.3-1.73,3.05-2.52,5.06-2.78,1.94-.26,3,.43,3.25,2.36.17,1.31.16,2.73-.19,3.99-1.53,5.58-4.62,10.14-9.44,13.41-1.59,1.08-3.34,2.14-5.37,1.13-1.3-.64-1.53-2.01-1.09-5.5Z"/>
      <path class="cls-2" d="M27.68,135.64c1.23-2.14,2.92-3.31,5.09-3.81,2.22-.51,3.87.21,4.65,2.35.49,1.33.79,2.82.73,4.23-.21,5.31-2.16,9.94-5.91,13.76-.6.61-1.29,1.18-2.01,1.64-3.52,2.23-5.88,1.24-7.07-3.14,1.36,0,2.95.72,3.88-.71.78-1.2,1.52-2.46,2.02-3.79,1.38-3.67,1.11-7.19-1.39-10.52Z"/>
    </g>
  </g>
  <g id="face2">
    <g id="face3">
      <path class="cls-1" d="M159.09,48.55c-1.63,1.34-2.97,2.7-4.55,3.68-4.38,2.73-8.57,1.15-10.18-3.76-1.1-3.37-.97-6.8-.32-10.26,1.02-5.46,3.06-10.44,6.56-14.78,1.53-1.89,3.31-3.49,5.66-4.36,3.56-1.32,5.65-.69,7.84,2.45.29.41.56.84.94,1.41,3.37-3.39,7.18-5.74,11.72-6.56,2.15-.39,4.38-.58,6.56-.45,3.79.23,5.64,2.58,5.12,6.37-.23,1.64-.7,3.3-1.39,4.8-3.37,7.36-7.53,14.27-12.39,20.74-1.13,1.5-2.53,2.79-3.83,4.16-1.3,1.37-2.95,1.98-4.81,1.96-4.83-.07-5.78-1.18-6.4-4.47-.05-.29-.29-.54-.52-.93ZM160.76,45.71c.42,1.16.84,2.2,1.19,3.26.7,2.14,1.07,2.44,3.31,2.61,1.56.12,2.92-.31,3.98-1.45,1.43-1.53,2.92-3.01,4.15-4.7,4.25-5.85,7.96-12.03,11.07-18.56.58-1.22,1.05-2.51,1.38-3.82.82-3.26-.33-4.93-3.66-4.94-5.74-.01-10.88,1.85-15.3,5.56-.95.79-1.42,1.7-1.31,2.99.56,6.93-1.47,13.22-4.81,19.03ZM146.35,45.97c.22.91.29,1.64.57,2.29,1.23,2.85,3.41,3.64,6.06,2,1.4-.87,2.7-2.02,3.74-3.29,3.61-4.39,5.73-9.51,6.26-15.15.24-2.55.09-5.27-.56-7.73-.92-3.52-3.89-4.31-6.86-2.16-2.51,1.82-4.27,4.29-5.71,7-.68,1.28-1.49,2.55-1.66,4.38,1-.57,1.62-.95,2.26-1.29,1.46-.78,2.91-1.15,4.37.05,1.44,1.18,1.61,2.79,1.06,4.28-.82,2.23-1.79,4.48-3.11,6.44-1.41,2.09-3.41,3.64-6.43,3.2Z"/>
      <path class="cls-1" d="M138.31,78.85c-1.04-2.18-.38-3.48.68-4.66,1.67-1.86,3.85-2.93,6.23-3.43,4.45-.94,8.95-1.24,13.35.18,2.56.83,4.83.63,7.25-.57,3.13-1.55,6.48-2.38,10.05-1.65,1.38.28,2.59.73,3,2.71-.83,0-1.53.17-2.11-.03-3.32-1.12-6.54-.5-9.44,1.03-3.44,1.81-6.68,1.66-10.3.68-4.28-1.16-8.71-.98-13.02.28-2.62.76-4.41,2.53-5.69,5.47Z"/>
      <path class="cls-1" d="M197,4.3c-2.99-1.18-5.96-2.65-9.23-2.06-3.18.57-6.32,1.33-8.4,4.52-1.01-1.43-.36-2.33.4-3.16,3.22-3.49,11.69-4.79,15.84-2.34.79.47,1.33,1.37,1.98,2.07-.2.32-.4.65-.6.97Z"/>
      <path class="cls-2" d="M160.76,45.71c3.34-5.82,5.37-12.11,4.81-19.03-.11-1.29.36-2.2,1.31-2.99,4.43-3.71,9.56-5.57,15.3-5.56,3.33,0,4.47,1.67,3.66,4.94-.33,1.31-.8,2.6-1.38,3.82-3.11,6.53-6.82,12.71-11.07,18.56-1.22,1.68-2.72,3.17-4.15,4.7-1.06,1.14-2.42,1.57-3.98,1.45-2.24-.18-2.61-.47-3.31-2.61-.35-1.06-.76-2.11-1.19-3.26ZM175.87,28.48c-2.06-.11-3.15,1.33-4.13,2.59-1.98,2.56-3.76,5.28-5.57,7.97-.39.59-.6,1.33-.78,2.03-.65,2.55-.06,4.39,1.6,5.23,1.55.79,2.96.17,4.75-2,2.25-2.73,3.36-5.99,4.51-9.26.76-2.18.98-4.25-.38-6.57Z"/>
      <path class="cls-2" d="M146.35,45.97c3.01.44,5.02-1.11,6.43-3.2,1.32-1.96,2.29-4.21,3.11-6.44.55-1.49.38-3.11-1.06-4.28-1.46-1.2-2.91-.83-4.37-.05-.64.34-1.26.72-2.26,1.29.18-1.83.98-3.09,1.66-4.38,1.43-2.71,3.2-5.18,5.71-7,2.97-2.15,5.94-1.36,6.86,2.16.64,2.47.8,5.18.56,7.73-.53,5.63-2.65,10.75-6.26,15.15-1.05,1.27-2.35,2.43-3.74,3.29-2.64,1.64-4.82.85-6.06-2-.28-.64-.35-1.38-.57-2.29Z"/>
      <path class="cls-1" d="M175.87,28.48c1.35,2.32,1.14,4.39.38,6.57-1.15,3.27-2.26,6.53-4.51,9.26-1.79,2.17-3.19,2.79-4.75,2-1.66-.84-2.24-2.67-1.6-5.23.18-.7.39-1.44.78-2.03,1.8-2.69,3.59-5.41,5.57-7.97.98-1.26,2.06-2.7,4.13-2.59Z"/>
    </g>
  </g>
  <g id="face3-2" data-name="face3">
    <ellipse class="cls-2" cx="310.82" cy="131.27" rx="14.94" ry="10.36" transform="translate(64.05 361.37) rotate(-65.89)"/>
    <ellipse class="cls-2" cx="330.91" cy="140.71" rx="15.07" ry="8.93" transform="translate(28.33 334.98) rotate(-55.74)"/>
    <path class="cls-2" d="M348.68,130.75c-.81-2.54-2.7-2.77-4.23-3.19-7.79-2.14-14.95-1.36-20.62,5.22-.2-2.45-.32-4.57-.55-6.69-.33-3.04-1.98-5.4-4.16-7.39-.41-.37-1.27-.24-1.92-.34.02.64-.13,1.35.11,1.9.27.64.96,1.08,1.33,1.69.69,1.14,1.51,2.27,1.87,3.52,2.05,7.15-1.83,14.14-6.87,16.75-1.19.62-2.34,1.33-3.52,1.96-4.3,2.27-7.98.83-9.6-3.77-1.09-3.11-.61-6.07.92-9.16,1.5,1.61,2.93,3.25,5.29,2.09,1.48-.73,2.59-1.84,2.55-3.59-.07-2.62-1.92-3.79-4.49-4.56,1.69-1.79,3.06-3.5,4.69-4.89,1.72-1.47,3.7-2.64,5.56-3.94,1.69-1.18,3.83-1.83,5.11-4.15-.74.03-1.14-.06-1.46.07-9.31,3.61-16.19,9.79-20.05,19.11-1.31,3.15-1.65,6.37-.55,9.69,2.06,6.2,7.59,8.45,13.33,5.33,2.42-1.31,4.76-2.76,7.28-4.23-.14,1.5-.37,2.83-.38,4.16-.05,4.65,1.6,7.27,5.42,8.82,3.21,1.3,6.16.7,8.67-1.5,5.89-5.18,10.33-11.27,11.45-19.29.16-1.18,1.21-3.02-.78-3.34-1.65-.26-1.58,1.66-1.71,2.78-.66,5.83-3.63,10.47-7.39,14.7-1.16,1.31-2.46,2.5-3.82,3.61-2.89,2.35-8.43.89-9.08-3.7-.4-2.8.17-5.38,1.21-7.86,2.88-6.86,8.22-13.12,18.62-11.3,2.42.43,4.83.92,7.8,1.49Z"/>
    <path class="cls-2" d="M281.6,162.15c3-2.18,5.78-4.1,9.46-2.85.36.12.84-.14,1.22-.05,1.1.25,2.31.36,3.24.92,1.84,1.11,3.5,2.52,5.27,3.74.84.58,1.72,1.19,2.67,1.5,6.88,2.22,13.65,1.59,20.29-1.01.54-.21.91-.88,1.58-1.55-2.79-1.56-5.49-1.41-8.11-1.58-1.02-.07-2.1.11-3.05-.16-5.84-1.7-11.65-3.52-17.49-5.25-5.35-1.58-9.96.21-14.24,3.3-.86.62-1.51,1.38-.85,3Z"/>
    <path class="cls-2" d="M330.53,141.09c.77-2.51.14-4.42-1.33-5.1-1.66-.77-3.51,0-4.58,1.95-.29.54-.51,1.13-.67,1.72-.36,1.36-.49,2.83.93,3.57,1.28.67,2.83.8,4.07-.21.76-.62,1.28-1.55,1.59-1.93Z"/>
    <path class="cls-2" d="M335.66,117.24c5.23-3.19,9.32-3.09,12.99.07.64.56,1.2,1.81,2.2.75.91-.97.06-1.88-.62-2.67-.2-.23-.44-.44-.68-.62-3.02-2.17-6.43-2.7-9.96-2-2.07.41-3.74,1.61-3.92,4.47Z"/>
    <path class="cls-2" d="M321.33,105.95c-1.02,1.62-.02,2.43.53,3.33,1.31,2.19,2.68,4.34,3.93,6.56.52.91.52,2.62,2.05,1.97,1.32-.56.65-1.99.25-3-1.39-3.5-3.7-6.3-6.76-8.87Z"/>
    <path class="cls-1" d="M348.68,130.75c-2.97-.57-5.38-1.07-7.8-1.49-10.4-1.83-15.74,4.43-18.62,11.3-1.04,2.48-1.61,5.05-1.21,7.86.66,4.59,6.2,6.05,9.08,3.7,1.35-1.1,2.66-2.3,3.82-3.61,3.76-4.23,6.73-8.88,7.39-14.7.13-1.12.06-3.05,1.71-2.78,1.99.32.95,2.16.78,3.34-1.12,8.02-5.56,14.11-11.45,19.29-2.51,2.21-5.46,2.81-8.67,1.5-3.82-1.55-5.47-4.17-5.42-8.82.01-1.33.24-2.65.38-4.16-2.52,1.47-4.86,2.92-7.28,4.23-5.74,3.12-11.27.86-13.33-5.33-1.1-3.31-.75-6.53.55-9.69,3.86-9.32,10.74-15.5,20.05-19.11.32-.12.72-.04,1.46-.07-1.28,2.33-3.42,2.97-5.11,4.15-1.86,1.3-3.84,2.47-5.56,3.94-1.63,1.39-3,3.1-4.69,4.89,2.58.77,4.43,1.94,4.49,4.56.04,1.74-1.07,2.86-2.55,3.59-2.36,1.16-3.8-.47-5.29-2.09-1.53,3.1-2.01,6.06-.92,9.16,1.61,4.6,5.29,6.05,9.6,3.77,1.19-.63,2.33-1.34,3.52-1.96,5.04-2.6,8.92-9.59,6.87-16.75-.36-1.25-1.18-2.39-1.87-3.52-.37-.61-1.06-1.06-1.33-1.69-.24-.55-.09-1.26-.11-1.9.65.1,1.51-.03,1.92.34,2.18,1.99,3.83,4.35,4.16,7.39.23,2.11.35,4.24.55,6.69,5.67-6.58,12.83-7.36,20.62-5.22,1.53.42,3.42.64,4.23,3.19Z"/>
    <path class="cls-1" d="M281.6,162.15c-.66-1.61-.02-2.37.85-3,4.28-3.09,8.89-4.88,14.24-3.3,5.84,1.72,11.64,3.55,17.49,5.25.95.28,2.03.1,3.05.16,2.62.17,5.32.02,8.11,1.58-.67.67-1.03,1.34-1.58,1.55-6.64,2.61-13.41,3.23-20.29,1.01-.95-.31-1.83-.92-2.67-1.5-1.77-1.23-3.43-2.63-5.27-3.74-.93-.56-2.14-.68-3.24-.92-.39-.09-.86.18-1.22.05-3.68-1.25-6.47.67-9.46,2.85ZM299.75,158.88c3.72,5.39,8.49,5.42,13.99,5.08-4.39-3.06-9.53-1.97-13.99-5.08Z"/>
    <path class="cls-1" d="M330.53,141.09c-.31.39-.83,1.31-1.59,1.93-1.23,1.01-2.79.88-4.07.21-1.41-.74-1.29-2.21-.93-3.57.16-.59.37-1.19.67-1.72,1.07-1.95,2.92-2.72,4.58-1.95,1.47.68,2.1,2.59,1.33,5.1Z"/>
    <path class="cls-1" d="M335.66,117.24c.19-2.86,1.85-4.06,3.92-4.47,3.53-.7,6.94-.17,9.96,2,.25.18.49.39.68.62.67.78,1.53,1.69.62,2.67-1,1.06-1.55-.19-2.2-.75-3.67-3.16-7.76-3.26-12.99-.07Z"/>
    <path class="cls-1" d="M321.33,105.95c3.06,2.57,5.38,5.37,6.76,8.87.4,1.01,1.07,2.44-.25,3-1.53.64-1.53-1.06-2.05-1.97-1.25-2.22-2.62-4.38-3.93-6.56-.54-.91-1.55-1.71-.53-3.33Z"/>
    <path class="cls-2" d="M299.75,158.88c4.46,3.11,9.6,2.02,13.99,5.08-5.5.35-10.27.31-13.99-5.08Z"/>
  </g>
</svg>